HIERARCHY
ROOT Hips
{
	OFFSET -3.958830 18.904000 13.208200
	CHANNELS 6 Xposition Yposition Zposition Zrotation Yrotation Xrotation 
	JOINT LHipJoint
	{
		OFFSET 0.000000 0.000000 0.000000
		CHANNELS 3 Zrotation Yrotation Xrotation
		JOINT LeftUpLeg
		{
			OFFSET 1.800000 -1.400000 0.085000
			CHANNELS 3 Zrotation Yrotation Xrotation
			JOINT LeftLeg
			{
				OFFSET 2.215000 -6.000000 0.000000
				CHANNELS 3 Zrotation Yrotation Xrotation
				JOINT LeftFoot
				{
					OFFSET 2.500000 -6.900000 0.000000
					CHANNELS 3 Zrotation Yrotation Xrotation
					JOINT LeftToeBase
					{
						OFFSET 0.200000 -0.500000 1.950000
						CHANNELS 3 Zrotation Yrotation Xrotation
						End Site
						{
							OFFSET 0.000000 0.000000 0.000000
						}
					}
				}
			}
		}
	}
	JOINT RHipJoint
	{
		OFFSET 0.000000 0.000000 0.000000
		CHANNELS 3 Zrotation Yrotation Xrotation
		JOINT RightUpLeg
		{
			OFFSET -1.800000 -1.400000 0.085000
			CHANNELS 3 Zrotation Yrotation Xrotation
			JOINT RightLeg
			{
				OFFSET -2.215000 -6.000000 0.000000
				CHANNELS 3 Zrotation Yrotation Xrotation
				JOINT RightFoot
				{
					OFFSET -2.500000 -6.900000 0.000000
					CHANNELS 3 Zrotation Yrotation Xrotation
					JOINT RightToeBase
					{
						OFFSET -0.200000 -0.500000 1.950000
						CHANNELS 3 Zrotation Yrotation Xrotation
						End Site
						{
							OFFSET 0.000000 0.000000 0.000000
						}
					}
				}
			}
		}
	}
	JOINT LowerBack
	{
		OFFSET 0.000000 0.000000 0.000000
		CHANNELS 3 Zrotation Yrotation Xrotation
		JOINT Spine
		{
			OFFSET -0.087000 1.940000 -0.288900
			CHANNELS 3 Zrotation Yrotation Xrotation
			JOINT Spine1
			{
				OFFSET 0.000000 1.950000 0.060000
				CHANNELS 3 Zrotation Yrotation Xrotation
				JOINT Neck
				{
					OFFSET 0.000000 0.000000 0.000000
					CHANNELS 3 Zrotation Yrotation Xrotation
					JOINT Neck1
					{
						OFFSET 0.000000 1.600000 0.340000
						CHANNELS 3 Zrotation Yrotation Xrotation
						JOINT Head
						{
							OFFSET 0.000000 1.667000 -0.240000
							CHANNELS 3 Zrotation Yrotation Xrotation
							End Site
							{
								OFFSET 0.000000 0.000000 0.000000
							}
						}
					}
				}
				JOINT LeftShoulder
				{
					OFFSET 0.000000 0.000000 0.000000
					CHANNELS 3 Zrotation Yrotation Xrotation
					JOINT LeftArm
					{
						OFFSET 2.700000 1.550000 -0.730000
						CHANNELS 3 Zrotation Yrotation Xrotation
						JOINT LeftForeArm
						{
							OFFSET 5.450000 0.000000 0.000000
							CHANNELS 3 Zrotation Yrotation Xrotation
							JOINT LeftHand
							{
								OFFSET 3.450000 0.000000 0.000000
								CHANNELS 3 Zrotation Yrotation Xrotation
								JOINT LeftHandIndex1
								{
									OFFSET 0.750000 0.000000 0.000000
									CHANNELS 3 Zrotation Yrotation Xrotation
									End Site
									{
										OFFSET 0.000000 0.000000 0.000000
									}
								}
							}
						}
					}
				}
				JOINT RightShoulder
				{
					OFFSET 0.000000 0.000000 0.000000
					CHANNELS 3 Zrotation Yrotation Xrotation
					JOINT RightArm
					{
						OFFSET -2.700000 1.550000 -0.730000
						CHANNELS 3 Zrotation Yrotation Xrotation
						JOINT RightForeArm
						{
							OFFSET -5.450000 0.000000 0.000000
							CHANNELS 3 Zrotation Yrotation Xrotation
							JOINT RightHand
							{
								OFFSET -3.450000 0.000000 0.000000
								CHANNELS 3 Zrotation Yrotation Xrotation
								JOINT RightHandIndex1
								{
									OFFSET -0.750000 0.000000 0.000000
									CHANNELS 3 Zrotation Yrotation Xrotation
									End Site
									{
										OFFSET 0.000000 0.000000 0.000000
									}
								}
							}
						}
					}
				}
			}
		}
	}
}
MOTION
Frames: 12
Frame Time: 0.016667
2.601560 16.216490 -5.769680 5.916854 5.718146 -2.532318 -15.411188 13.559992 3.251169 -6.196490 1.830618 2.092293 -8.398100 11.653630 33.741013 0.385050 8.013317 1.993461 0.248030 -0.273990 0.319430 18.194916 -9.009561 4.369775 10.575508 9.592668 -35.578441 2.907662 -3.668308 21.360739 -0.121100 -1.939462 3.705829 -0.173970 0.231630 0.386350 -3.220760 -3.910962 -8.698652 13.033530 -6.440588 18.815023 -5.133328 -3.869397 -0.818159 7.095455 -3.640331 -10.169013 -9.749270 5.404808 43.106455 -9.802450 4.509760 -13.257090 -28.031538 -9.548448 2.998271 -53.284265 -3.758633 -2.204128 -13.586287 -9.512070 -1.005005 -3.755091 2.716196 0.862520 0.056680 0.117120 0.132900 14.010319 12.914573 6.119584 44.789282 5.513455 -17.327237 -56.394945 42.401047 -23.552239 1.663593 -1.018662 -0.267020 0.223960 0.142050 -0.299890 
2.634280 16.238390 -5.619740 5.630132 5.097165 -2.725958 -15.421267 13.622439 3.236037 -5.526860 2.005641 3.463090 -8.282178 11.785348 33.905599 0.390395 8.219946 1.932733 0.185810 -0.362140 0.268880 18.195712 -8.949883 4.360084 11.436298 9.572482 -34.972255 1.656203 -3.490332 21.771109 -0.095064 -1.998238 3.694563 -0.206080 0.291010 0.415070 -3.197872 -4.101100 -8.683702 13.724165 -6.826486 17.428675 -5.043323 -4.407470 0.124836 7.372943 -3.584699 -11.040379 -9.739244 5.756576 42.418363 -10.067540 5.095030 -11.357410 -28.092702 -11.784099 4.134495 -53.810366 -3.355111 -2.204137 -12.397857 -9.695476 -1.123396 -3.811681 2.719879 0.856560 0.112640 0.073980 0.117310 13.518188 14.972868 6.829448 42.864359 5.108225 -17.150606 -55.202246 38.796538 -21.424809 1.682551 -1.112283 -0.295140 0.216880 0.203080 -0.308450 
2.662470 16.303960 -5.473310 5.048779 2.708278 -3.085042 -15.395317 13.663384 3.270827 -5.315705 2.047079 3.842811 -8.871984 12.175183 34.133210 0.436819 8.351876 1.885814 0.194210 -0.347730 0.279320 18.221876 -8.972168 4.285110 13.381565 9.031669 -32.138869 0.295085 -3.077001 19.924733 -0.088883 -1.842522 3.753710 -0.201250 0.280290 0.410630 -3.239240 -4.184841 -8.679255 15.213991 -6.944106 16.797470 -5.795016 -4.410769 0.903841 7.897875 -3.572871 -11.985339 -9.958043 6.516097 43.084635 -9.509760 5.714380 -10.890640 -29.087104 -14.089963 5.103658 -53.122589 -2.945246 -1.816171 -11.316476 -8.153183 -1.187585 -3.787994 2.722788 0.860290 0.104240 0.085660 0.116810 13.363470 17.397525 7.564423 40.945310 5.211268 -16.703575 -52.117589 34.114242 -18.236158 1.758092 -1.212066 -0.291310 0.212780 0.193930 -0.309820 
2.677560 16.365050 -5.315990 5.838286 1.873003 -2.917883 -15.461265 13.689880 3.370838 -5.168228 1.945624 4.022637 -10.988797 13.023648 33.617231 0.487748 8.583675 1.812056 0.181280 -0.382640 0.283090 18.150862 -8.995852 4.159300 12.818067 8.519254 -31.543790 -0.239594 -3.076808 20.806419 -0.097598 -1.986827 3.687794 -0.212940 0.291290 0.441070 -3.030410 -4.289383 -8.713378 13.485192 -6.775624 15.701178 -4.877707 -4.772475 1.531199 8.152775 -2.727228 -12.395968 -8.175738 6.045599 42.505543 -9.993910 6.301710 -9.678090 -29.107676 -15.363498 5.787168 -53.852060 -2.647160 -1.704997 -9.990024 -7.487718 -1.259892 -3.820515 2.757321 0.850860 0.133450 0.068520 0.107830 13.011092 18.186914 7.832237 39.135311 5.401705 -15.658008 -47.603708 30.793910 -15.103331 1.799613 -1.291683 -0.294350 0.175430 0.205950 -0.323490 
2.688340 16.443980 -5.170020 6.231632 0.274577 -2.774386 -15.484985 13.694934 3.419027 -4.664899 1.503495 3.260705 -12.375335 13.946422 34.807195 0.584815 8.896275 1.710250 0.209870 -0.338770 0.301760 18.115769 -9.085842 4.025589 12.696567 7.840002 -29.917197 -0.083515 -3.113922 20.019579 -0.113637 -2.003622 3.684055 -0.195740 0.277780 0.452930 -2.921551 -4.238648 -8.703391 12.503238 -6.563538 15.089858 -4.646333 -4.877109 2.132717 8.403888 -1.731477 -12.575546 -6.002844 5.815175 42.009203 -10.151730 7.199680 -9.564200 -29.307471 -16.344736 6.248100 -53.736634 -2.721349 -1.487297 -9.116286 -6.769826 -1.240667 -3.813977 2.794284 0.834690 0.142640 0.080310 0.124060 12.723908 18.531562 7.894119 38.232797 6.157350 -14.451239 -43.014770 28.195355 -12.616961 1.842982 -1.347593 -0.275750 0.148110 0.171800 -0.321660 
2.722840 16.510930 -5.014560 6.189094 -0.907091 -2.436587 -15.407047 13.589923 3.385240 -4.048015 0.814198 2.168713 -12.349250 14.490746 37.213832 0.715950 9.196199 1.616393 0.231780 -0.280130 0.308700 18.188784 -9.295412 3.855763 12.509161 6.928524 -27.960398 0.504585 -3.251194 18.397673 -0.113413 -2.019111 3.692943 -0.181700 0.271250 0.473110 -3.122822 -3.820690 -8.529451 13.609777 -6.801683 13.784693 -6.417097 -5.227955 3.395153 8.810956 -0.700423 -12.415043 -3.472418 5.562456 39.741548 -10.822760 8.473630 -9.118260 -27.862948 -16.761817 6.427972 -54.188454 -3.670327 -1.166984 -8.224990 -5.883568 -1.151435 -3.839496 2.858716 0.763280 0.175610 0.082680 0.144520 10.160602 17.886229 7.841147 41.260781 7.669739 -13.467284 -39.250639 27.461574 -11.467314 1.876733 -1.415675 -0.228450 0.097890 0.124590 -0.298450 
2.753200 16.589640 -4.882140 6.301573 -2.827583 -2.329434 -15.357597 13.501034 3.438059 -3.390563 -0.129523 0.097720 -13.625734 15.751836 39.945583 0.894473 9.684350 1.454273 0.278970 -0.187390 0.320250 18.231214 -9.420130 3.709104 12.386117 6.076715 -25.928807 0.633136 -3.258794 16.825840 -0.140270 -2.000680 3.723064 -0.154240 0.238570 0.478080 -3.228400 -3.603402 -8.467678 14.417222 -6.947118 13.906596 -7.730049 -5.167303 3.889216 9.092365 -0.493031 -12.411558 -2.877410 5.482986 38.531736 -11.068590 8.830980 -10.347640 -26.972008 -16.841574 6.350758 -54.253630 -4.368772 -1.128711 -7.844165 -5.695221 -1.078982 -3.809383 2.892390 0.732320 0.165740 0.121300 0.178160 8.545666 17.772156 7.985987 43.075448 8.275938 -12.899623 -35.476012 28.243194 -10.616258 1.888286 -1.423148 -0.179540 0.078690 0.065160 -0.270460 
2.760050 16.652450 -4.752070 6.518374 -5.595073 -2.041258 -15.321316 13.323093 3.520138 -2.247005 -1.074054 -2.603051 -16.012483 17.802587 42.575664 1.107813 10.374839 1.230184 0.315940 -0.120040 0.327860 18.275724 -9.483737 3.607333 12.495040 5.545856 -24.223246 0.564707 -3.220074 15.843571 -0.173710 -2.021686 3.724376 -0.136430 0.213690 0.481520 -3.312608 -3.333099 -8.433705 14.696633 -6.495363 14.072800 -8.166571 -4.544110 4.290742 8.804658 -0.749106 -12.408174 -3.212914 5.425503 37.215586 -10.761090 8.703790 -11.573220 -24.927174 -16.635546 6.165489 -55.208205 -5.527331 -1.062477 -8.336881 -6.048726 -1.034495 -3.785358 2.930066 0.714770 0.147160 0.150170 0.201570 7.066294 17.778461 8.201424 44.918474 8.456978 -12.828899 -32.267406 30.442470 -10.259147 1.878499 -1.415382 -0.141790 0.064490 0.024610 -0.246870 
2.756720 16.708500 -4.629900 6.849633 -7.428461 -1.982057 -15.294976 13.177304 3.660476 -0.763099 -2.310024 -5.401574 -17.847539 19.597877 45.318480 1.288797 11.046654 0.991834 0.347490 -0.067690 0.332370 18.297889 -9.536891 3.481556 12.070866 4.881947 -22.512856 0.805004 -3.267177 14.693057 -0.208207 -2.039446 3.719631 -0.130160 0.170020 0.487780 -3.363011 -3.179390 -8.456228 14.504801 -6.324691 14.743500 -8.849870 -4.082139 4.238298 8.447444 -0.681428 -12.541555 -3.135892 5.297513 36.883781 -10.024550 8.460370 -13.061760 -23.947161 -16.832911 6.194783 -54.318764 -6.084986 -0.991111 -8.973166 -6.266904 -0.982905 -3.742983 2.971292 0.720450 0.113540 0.182860 0.205250 6.747744 17.896892 8.385731 46.750951 8.121867 -13.004105 -29.686090 31.820182 -9.810460 1.875651 -1.404485 -0.102670 0.035500 0.002770 -0.236610 
2.745540 16.760230 -4.529170 6.989510 -9.098499 -2.553879 -15.307674 13.022144 3.938968 1.853933 -3.988664 -8.693155 -20.249699 22.353708 49.295767 1.521968 12.104449 0.646699 0.399010 -0.021590 0.391080 18.281711 -9.479777 3.359318 11.812917 4.267870 -20.428588 0.809751 -3.298138 13.824768 -0.282067 -2.030438 3.720584 -0.122150 0.087360 0.459740 -3.305673 -3.243432 -8.622594 13.900556 -6.277059 16.953335 -8.938927 -3.475478 3.571533 8.052362 -0.849627 -12.904520 -3.866073 5.130594 38.491271 -9.365990 7.876140 -16.381930 -23.054023 -17.059105 6.205302 -53.024336 -6.529795 -1.441441 -11.004822 -8.193053 -0.928449 -3.625017 2.950276 0.810880 0.022360 0.252620 0.204620 6.680900 18.393018 8.723373 48.021535 7.383452 -13.111981 -26.655093 31.647593 -8.704212 1.897939 -1.345131 -0.102230 0.053170 -0.034510 -0.260800 
2.715400 16.771970 -4.450250 7.063156 -10.845712 -2.685933 -15.339132 12.720153 4.307556 5.401689 -5.632875 -12.921970 -23.157774 25.837858 53.322123 1.807878 13.313869 0.276409 0.419110 0.011140 0.394860 18.276442 -9.324768 3.244064 11.839676 3.919916 -18.933312 0.855001 -3.277718 12.907987 -0.319941 -2.026279 3.727650 -0.115690 0.057220 0.440680 -3.255695 -3.248993 -8.796187 12.958071 -6.132612 18.775299 -8.521967 -2.920777 3.099797 7.315549 -1.494600 -13.135511 -5.387661 5.246571 38.836221 -8.190810 7.179190 -18.154920 -22.052458 -17.157156 6.182303 -51.525912 -7.016570 -2.119650 -14.142230 -11.348970 -0.705208 -3.553365 2.964215 0.841390 -0.022920 0.281190 0.207450 7.268963 19.014522 9.005917 48.429593 6.524974 -13.444371 -23.440664 33.056677 -7.912825 1.890272 -1.294938 -0.094170 0.068530 -0.045910 -0.257220 
2.667440 16.768690 -4.376700 7.623760 -12.347100 -3.377213 -15.404970 12.405660 4.745405 8.764173 -7.110186 -16.911300 -25.294623 29.324505 57.628808 2.055432 14.478852 -0.082949 0.459640 0.045460 0.436120 18.239820 -9.183629 3.088775 11.253497 3.616430 -17.570712 1.418393 -3.464370 13.128204 -0.378343 -2.097006 3.687534 -0.104950 0.001680 0.439690 -3.117890 -3.241849 -8.991542 10.779026 -5.613948 21.047175 -7.664074 -2.189921 2.789821 6.557533 -1.833068 -13.338757 -6.416756 5.173265 39.863693 -7.335930 6.514670 -20.650660 -20.641280 -17.388255 6.112302 -49.455610 -7.777776 -2.703146 -18.903824 -14.259161 -0.246811 -3.492945 2.988394 0.897410 -0.077380 0.323740 0.191460 7.556089 19.669551 9.236604 49.555792 6.308388 -13.310266 -19.657012 32.839050 -6.701623 1.898754 -1.253749 -0.082360 0.070810 -0.052050 -0.277760 
